#!OML:ASF E:\acrobat2\Project_11_07_03\Capture day 1\Session 1\Acrobat.ASF
:FULLY-SPECIFIED
:DEGREES
129
root 5.89544 17.203 -21.2554 51.816 78.8617 38.9627
lowerback 3.46018 -1.96604 -6.09722
upperback 0.908609 -2.81029 0.836252
thorax -0.665579 -1.40122 4.38642
lowerneck 9.27716 -20.872 -8.5027
upperneck -15.3703 -26.8523 21.796
head -1.80434 -14.3902 8.06839
rclavicle 2.72335e-014 -1.35174e-014
rhumerus -33.7104 -3.03762 -78.8178
rradius 24.2627
rwrist 2.80047
rhand -4.77561 -35.5264
rfingers 7.12502
rthumb 21.009 -64.4085
lclavicle 2.72335e-014 -1.35174e-014
lhumerus -32.7982 -7.26374 73.4229
lradius 22.7634
lwrist 7.799
lhand -8.78395 -9.5572
lfingers 7.12502
lthumb 17.1544 19.7055
rfemur -42.7659 -18.958 8.82527
rtibia 54.2104
rfoot -30.86 -24.0008
rtoes 7.02534
lfemur -11.8781 6.08117 -5.53001
ltibia 18.6675
lfoot -11.4108 -13.9428
ltoes 53.2574
130
root 5.93655 17.1572 -21.1574 51.6553 77.9193 38.9856
lowerback 3.49955 -1.96669 -6.22211
upperback 0.865133 -2.82082 0.66022
thorax -0.734162 -1.40249 4.27712
lowerneck 9.22854 -20.6768 -8.74719
upperneck -15.0845 -26.659 21.6955
head -1.72221 -14.2686 8.05125
rclavicle -3.95581e-014 3.97569e-015
rhumerus -33.379 -3.12158 -78.2194
rradius 24.659
rwrist 2.04288
rhand -4.79516 -35.8206
rfingers 7.12502
rthumb 20.9902 -64.7047
lclavicle -3.95581e-014 3.97569e-015
lhumerus -33.1722 -6.75233 73.1902
lradius 22.7261
lwrist 7.69343
lhand -8.676 -9.43028
lfingers 7.12502
lthumb 17.2583 19.8234
rfemur -43.491 -20.3132 9.15913
rtibia 55.0414
rfoot -31.8733 -24.6236
rtoes 7.88252
lfemur -11.3984 6.24445 -5.99426
ltibia 18.9192
lfoot -12.0611 -13.88
ltoes 52.5569
131
root 5.97956 17.1073 -21.0617 51.2906 76.8849 38.7201
lowerback 3.38993 -1.87854 -6.24128
upperback 0.816535 -2.70039 0.400183
thorax -0.749305 -1.33985 4.01168
lowerneck 9.16577 -20.6525 -8.78231
upperneck -14.9155 -26.6562 21.569
head -1.67802 -14.251 8.00099
rclavicle -2.34566e-014 7.95139e-016
rhumerus -33.0486 -3.52659 -77.4431
rradius 25.2146
rwrist 1.80946
rhand -4.54206 -36.4335
rfingers 7.12502
rthumb 21.2333 -65.2906
lclavicle -2.34566e-014 7.95139e-016
lhumerus -33.3676 -6.33453 72.8306
lradius 22.59
lwrist 7.59407
lhand -8.12262 -9.68107
lfingers 7.12502
lthumb 17.7908 19.5251
rfemur -44.4328 -21.6262 9.59729
rtibia 55.9291
rfoot -32.3913 -25.1713
rtoes 8.22271
lfemur -11.0218 6.32661 -6.46227
ltibia 19.2127
lfoot -12.9354 -13.6025
ltoes 51.451
132
root 6.03248 17.0582 -20.9465 49.9246 76.0329 37.5608
lowerback 3.26851 -1.76109 -6.07808
upperback 0.847643 -2.53022 0.215534
thorax -0.684502 -1.25705 3.7189
lowerneck 8.96222 -20.5815 -8.80023
upperneck -14.7411 -26.5871 21.3778
head -1.63199 -14.1904 7.92107
rclavicle -1.2921e-014 -3.26007e-014
rhumerus -32.6895 -4.02573 -76.663
rradius 25.892
rwrist 1.58959
rhand -4.36152 -36.6833
rfingers 7.12502
rthumb 21.4068 -65.5207
lclavicle -1.2921e-014 -3.26007e-014
lhumerus -33.5857 -6.3172 72.5826
lradius 22.5354
lwrist 7.45986
lhand -7.83949 -9.73598
lfingers 7.12502
lthumb 18.0633 19.4452
rfemur -44.9055 -22.3804 10.2999
rtibia 56.4606
rfoot -33.0315 -25.1925
rtoes 11.2653
lfemur -10.3707 6.28422 -6.42061
ltibia 19.4213
lfoot -13.6345 -13.3465
ltoes 50.8595
133
root 6.0809 16.9981 -20.8162 48.4373 75.2286 36.1071
lowerback 3.00295 -1.7007 -5.98763
upperback 0.814553 -2.43139 0.163251
thorax -0.586917 -1.2103 3.60242
lowerneck 8.73553 -20.3358 -9.06294
upperneck -14.5105 -26.3134 21.2557
head -1.55066 -14.0202 7.89071
rclavicle 2.08724e-014 -1.59028e-014
rhumerus -32.2842 -4.12054 -75.8806
rradius 26.7981
rwrist 0.929064
rhand -4.64195 -36.9397
rfingers 7.12502
rthumb 21.1374 -65.8075
lclavicle 2.08724e-014 -1.59028e-014
lhumerus -34.0844 -6.57736 72.6278
lradius 22.7195
lwrist 7.36017
lhand -8.25596 -9.28811
lfingers 7.12502
lthumb 17.6625 19.9297
rfemur -45.6783 -23.1272 11.446
rtibia 56.8178
rfoot -32.5836 -26.118
rtoes 11.2769
lfemur -9.95036 6.49051 -6.15384
ltibia 19.7889
lfoot -13.7977 -13.3212
ltoes 50.9579
134
root 6.1301 16.942 -20.6783 46.8016 74.1329 34.7415
lowerback 2.97943 -1.62219 -6.06208
upperback 0.797617 -2.32859 0.00438209
thorax -0.605801 -1.15733 3.47696
lowerneck 8.62769 -20.0968 -9.36259
upperneck -14.2253 -26.0502 21.3012
head -1.44022 -13.8684 7.91641
rclavicle 7.95139e-015 7.15625e-015
rhumerus -31.8736 -3.50425 -75.3106
rradius 27.9621
rwrist -0.0693006
rhand -5.61855 -37.6804
rfingers 7.12502
rthumb 20.199 -66.6502
lclavicle 7.95139e-015 7.15625e-015
lhumerus -34.8294 -7.06557 72.6268
lradius 23.0734
lwrist 7.47297
lhand -8.51354 -9.0799
lfingers 7.12502
lthumb 17.4147 20.16
rfemur -46.219 -23.6558 12.3783
rtibia 57.4155
rfoot -33.4086 -26.1608
rtoes 13.3899
lfemur -9.21673 6.82341 -6.07001
ltibia 20.209
lfoot -13.8005 -13.3273
ltoes 50.8377
135
root 6.17726 16.8879 -20.5333 44.9099 72.8704 33.1996
lowerback 3.04061 -1.50789 -6.2492
upperback 0.792899 -2.18662 -0.126163
thorax -0.657739 -1.08394 3.44536
lowerneck 8.48026 -19.979 -9.65904
upperneck -13.9549 -25.9549 21.2885
head -1.31381 -13.7955 7.90875
rclavicle 1.98785e-015 -1.03368e-014
rhumerus -31.4411 -2.88529 -74.7487
rradius 29.3156
rwrist -0.776071
rhand -6.84725 -38.1084
rfingers 7.12502
rthumb 19.0177 -67.1987
lclavicle 1.98785e-015 -1.03368e-014
lhumerus -35.6579 -7.6629 72.6803
lradius 23.4342
lwrist 7.36715
lhand -8.73942 -9.13903
lfingers 7.12502
lthumb 17.1973 20.12
rfemur -46.6305 -23.6958 13.3141
rtibia 58.1108
rfoot -35.3126 -26.1335
rtoes 15.8906
lfemur -8.36992 7.2109 -5.94255
ltibia 20.7702
lfoot -13.7037 -13.3313
ltoes 50.8454
136
root 6.2232 16.8353 -20.382 43.1453 71.5052 31.7582
lowerback 3.04619 -1.36228 -6.5964
upperback 0.815847 -2.00239 -0.166144
thorax -0.645684 -0.992315 3.59317
lowerneck 8.25101 -19.9011 -9.99901
upperneck -13.8062 -25.908 21.2071
head -1.20819 -13.7402 7.883
rclavicle 4.17448e-014 2.62396e-014
rhumerus -30.8175 -2.25237 -73.9818
rradius 30.7495
rwrist -1.22353
rhand -7.65194 -38.0851
rfingers 7.12502
rthumb 18.2437 -67.2495
lclavicle 4.17448e-014 2.62396e-014
lhumerus -36.4508 -8.40327 72.9551
lradius 23.7022
lwrist 7.0607
lhand -9.0591 -9.19308
lfingers 7.12502
lthumb 16.8896 20.0925
rfemur -46.8374 -23.319 14.1483
rtibia 58.5611
rfoot -37.275 -26.3823
rtoes 17.2298
lfemur -7.61967 7.6903 -5.78719
ltibia 21.5409
lfoot -13.5994 -13.1092
ltoes 50.9509
137
root 6.27014 16.7851 -20.2147 41.7634 70.1457 30.7618
lowerback 3.09913 -1.26184 -6.98051
upperback 0.825849 -1.88357 -0.325407
thorax -0.670646 -0.931067 3.64149
lowerneck 8.04626 -19.7762 -10.2165
upperneck -13.5579 -25.7871 21.1516
head -1.10068 -13.6533 7.85648
rclavicle -4.96962e-015 -2.8625e-014
rhumerus -30.1792 -1.76912 -73.2722
rradius 32.3682
rwrist -1.34226
rhand -7.95401 -38.1244
rfingers 7.12502
rthumb 17.9531 -67.3158
lclavicle -4.96962e-015 -2.8625e-014
lhumerus -37.3298 -9.63718 73.226
lradius 23.9268
lwrist 7.05955
lhand -9.16416 -9.50624
lfingers 7.12502
lthumb 16.7884 19.7879
rfemur -46.7544 -22.9086 14.8359
rtibia 58.8719
rfoot -38.7363 -26.7125
rtoes 17.4681
lfemur -6.95545 8.24755 -5.6093
ltibia 22.6136
lfoot -13.1152 -12.7145
ltoes 51.5281
